<svg width="59" height="91" viewBox="0 0 59 91" fill="none" xmlns="http://www.w3.org/2000/svg">
<path d="M3.41988 0.248825C2.49566 0.657616 1.85582 1.65292 1.85582 2.73711C1.83804 3.608 2.05132 4.01679 7.06343 12.8857C9.94273 17.9689 12.3777 22.2523 12.4666 22.3945C12.591 22.6078 12.5021 22.8744 12.1466 23.3721C11.3468 24.5629 11.5246 25.3271 13.4086 28.6152C15.1326 31.6367 15.8968 33.3074 16.0746 34.4449L16.199 35.1914H15.5591C14.7238 35.1914 13.8351 35.9201 13.8351 36.6133C13.8351 36.8799 13.9951 37.3064 14.2084 37.573C14.5105 37.9641 14.706 38.0352 15.4703 38.0352H16.3589L16.2345 38.835C16.039 40.2568 15.4525 41.7498 13.9062 44.8246C12.7687 47.0996 12.4132 47.9705 12.4132 48.5215C12.4132 49.2857 12.7332 50.0855 13.1953 50.4588C13.4441 50.6543 12.6798 52.2717 7.09898 63.3445C3.57984 70.2939 0.576129 76.4258 0.416169 76.959C-0.899066 81.4023 0.984918 86.5033 4.91285 89.116C5.57047 89.5426 6.76129 90.1291 7.52554 90.4135L8.94742 90.9111H29.0314H49.1154L50.4484 90.5023C56.1181 88.7428 59.4773 82.5576 57.8244 76.959C57.6644 76.4258 54.6429 70.2762 51.1238 63.2912C45.6851 52.5205 44.7609 50.5832 45.0097 50.441C45.4541 50.1922 45.8273 49.3213 45.8273 48.5215C45.8273 47.9705 45.4718 47.0996 44.3166 44.8068C42.7525 41.6609 42.2015 40.2746 42.006 38.8705L41.8816 38.0352H42.6992C44.9031 38.0352 44.9564 35.4758 42.7703 35.2092L41.9705 35.1025L42.2015 34.125C42.5037 32.9875 43.5345 30.8369 45.2763 27.7266C46.7337 25.1672 46.8582 24.5096 46.0761 23.3543C45.7384 22.8744 45.6496 22.59 45.774 22.3945C45.8628 22.2523 48.2978 17.9689 51.1771 12.8857C56.1892 4.01679 56.4025 3.608 56.3847 2.73711C56.3847 1.63515 55.7449 0.639839 54.7851 0.248825C53.9142 -0.12442 4.25523 -0.106644 3.41988 0.248825ZM22.633 4.65664C23.9127 6.89609 24.9435 8.01582 26.2587 8.65566C27.1474 9.1 27.4496 9.15332 29.1203 9.15332C30.791 9.15332 31.0931 9.1 31.9818 8.65566C33.297 8.01582 34.3279 6.89609 35.6076 4.65664L36.6562 2.84375H45.063C49.6841 2.84375 53.4699 2.89706 53.4699 2.96816C53.4521 3.05703 51.0349 7.39375 48.0668 12.6191L42.6636 22.1279H29.1203H15.5591L10.1738 12.6191C7.20562 7.39375 4.78843 3.05703 4.77066 2.96816C4.77066 2.89706 8.5564 2.84375 13.1775 2.84375H21.5843L22.633 4.65664ZM33.2793 3.05703C32.1951 4.90546 31.6619 5.56308 30.9687 5.97187C29.3335 6.93164 27.0052 6.38066 26.0455 4.83437C25.8144 4.4789 25.4589 3.8746 25.2279 3.50137L24.8191 2.84375H29.1203C32.4972 2.84375 33.3859 2.89706 33.2793 3.05703ZM43.339 25.2561C43.339 25.3627 42.7347 26.5357 41.9882 27.851C40.0865 31.2102 39.8199 31.8855 39.18 34.6937L39.0734 35.1914H36.2474H33.4037L32.9949 34.4449C31.3064 31.3879 26.7209 31.4945 25.139 34.6227L24.8369 35.1914L21.9753 35.1559L19.1138 35.1025L18.8828 34.0361C18.5451 32.3477 17.7453 30.4637 16.199 27.7621C15.3992 26.3936 14.8127 25.2205 14.866 25.1672C14.9193 25.1139 21.3533 25.0605 29.1558 25.0605C39.5177 25.0605 43.339 25.1139 43.339 25.2561ZM30.1689 35.4758C31.0753 36.24 30.8976 37.573 29.8134 38.1418C28.7115 38.7105 27.5207 37.9107 27.5207 36.6133C27.5207 36.0801 27.6273 35.8312 28.0716 35.4758C28.3738 35.2092 28.8359 35.0137 29.1203 35.0137C29.4046 35.0137 29.8668 35.2092 30.1689 35.4758ZM25.2279 38.8883L25.69 39.7236L24.8191 40.7012C23.6816 41.9631 22.4552 43.9537 21.371 46.2998L20.5179 48.166H17.9763C16.5722 48.166 15.4347 48.1305 15.4347 48.0771C15.4347 48.0238 16.0746 46.7264 16.8566 45.1978C18.2252 42.5141 19.1671 39.7414 19.1671 38.4617V38.0352H21.9753H24.7658L25.2279 38.8883ZM39.1623 39.0482C39.34 40.6301 40.2109 42.9939 41.5261 45.5533C42.1837 46.8508 42.7525 47.9527 42.7703 48.0238C42.8058 48.1127 41.6861 48.166 40.282 48.166H37.7404L36.6384 45.891C35.4298 43.385 34.4701 41.8564 33.3148 40.5768L32.5505 39.7236L33.0126 38.8883L33.4748 38.0352H36.2474H39.0378L39.1623 39.0482ZM30.2044 41.4832C31.0043 42.0342 32.6394 44.2914 33.6525 46.2287L34.6478 48.166H29.138H23.6105L24.4281 46.5131C25.4589 44.4869 26.3654 43.1184 27.4673 41.9986C28.2316 41.2344 28.4093 41.1455 29.0492 41.1633C29.458 41.1811 29.9734 41.3232 30.2044 41.4832ZM18.7939 51.7562C18.5806 52.1828 18.1185 52.9648 17.7808 53.498C16.7144 55.151 17.0521 56.4129 18.5273 56.3062C19.1494 56.2529 19.3271 56.1463 19.8781 55.4176C20.2158 54.9555 20.9267 53.7824 21.4421 52.8049L22.3841 51.0098H29.138H35.8742L36.4252 52.1117C37.2072 53.6758 38.2914 55.4887 38.7179 55.9508C39.18 56.4484 40.122 56.4662 40.6908 56.0041C41.2951 55.5242 41.224 54.6711 40.4597 53.498C40.122 52.9648 39.6599 52.1828 39.4466 51.7562L39.0734 51.0098H40.3886H41.7039L44.9031 57.266C54.0919 75.3416 55.0695 77.3322 55.2828 78.7008C55.7093 81.3135 54.8207 83.9262 52.8656 85.8102C51.6392 86.9832 50.7505 87.4986 49.2576 87.8896C47.7113 88.2984 10.5115 88.2807 8.94742 87.8896C5.4105 86.9654 2.81558 83.5885 2.81558 79.8916C2.81558 77.9543 2.69117 78.2387 13.0709 57.7992L16.5189 51.0098H17.8519H19.1671L18.7939 51.7562Z" fill="black"/>
<path d="M14.5992 59.541C14.3682 59.6299 14.0482 59.9498 13.8705 60.2342C13.6928 60.5186 11.56 64.7131 9.125 69.5475L4.68164 78.3453V79.9271C4.68164 81.2424 4.77051 81.6512 5.16152 82.5043C5.81914 83.9084 6.90332 85.0281 8.30742 85.7213L9.48047 86.29H29.1201H48.7598L49.7729 85.8102C51.177 85.1525 52.2967 84.0684 52.9898 82.6643C53.5053 81.6156 53.5586 81.349 53.5586 79.9271V78.3631L49.684 70.6672C47.5689 66.4371 45.6494 62.8113 45.4539 62.6336C45.1162 62.3314 44.6541 62.2781 41.5793 62.1715C37.0826 62.0293 35.7141 61.8516 30.0088 60.7852C26.0453 60.0387 23.5037 59.7365 19.3625 59.541C15.0436 59.3455 15.0969 59.3455 14.5992 59.541ZM20.9088 62.4736C23.717 62.598 26.2764 62.9357 30.1688 63.7178C34.3811 64.5354 37.1537 64.8908 40.7262 65.0152L43.7121 65.1397L47.1957 72.018C49.6307 76.8346 50.6971 79.1273 50.7504 79.6605C50.9281 81.2602 49.8084 82.8775 48.2088 83.3396C47.7111 83.4996 42.468 83.5352 28.7647 83.4996C10.7957 83.4463 9.97813 83.4285 9.33828 83.1086C7.96973 82.4332 7.16992 80.6736 7.57871 79.234C7.68535 78.8074 9.62266 74.8084 11.8799 70.3295L15.9855 62.207L17.3541 62.2959C18.1006 62.3314 19.7002 62.4203 20.9088 62.4736Z" fill="black"/>
</svg>
