<svg width="174" height="91" viewBox="0 0 174 91" fill="none" xmlns="http://www.w3.org/2000/svg">
<path d="M12.8809 39.582C12.7637 39.7318 12.6204 39.8783 12.4512 40.0215C12.3079 40.1452 12.1289 40.2754 11.9141 40.4121C11.7057 40.5488 11.4616 40.6725 11.1816 40.7832C11.2728 40.666 11.2793 40.5423 11.2012 40.4121C11.1296 40.2754 10.9668 40.1517 10.7129 40.041C10.459 39.9303 10.1139 39.8392 9.67773 39.7676C9.24805 39.696 8.7207 39.6602 8.0957 39.6602C7.73112 39.6602 7.33724 39.6992 6.91406 39.7773C6.4974 39.849 6.08398 39.9759 5.67383 40.1582C5.26367 40.3405 4.86654 40.5846 4.48242 40.8906C4.10482 41.1901 3.76953 41.5677 3.47656 42.0234C3.18359 42.4727 2.94922 43.0098 2.77344 43.6348C2.60417 44.2533 2.51953 44.9694 2.51953 45.7832C2.51953 46.597 2.61719 47.3132 2.8125 47.9316C3.01432 48.5501 3.27799 49.084 3.60352 49.5332C3.93555 49.9759 4.31315 50.347 4.73633 50.6465C5.15951 50.9395 5.59245 51.1771 6.03516 51.3594C6.47786 51.5352 6.91081 51.6589 7.33398 51.7305C7.76367 51.8021 8.15104 51.8379 8.49609 51.8379C8.89323 51.8314 9.30664 51.8021 9.73633 51.75C10.1074 51.7044 10.5143 51.6393 10.957 51.5547C11.4062 51.4635 11.8457 51.3333 12.2754 51.1641C11.6439 51.6719 11.0579 52.0592 10.5176 52.3262C9.97721 52.5931 9.50195 52.7917 9.0918 52.9219C8.61654 53.0716 8.18034 53.1562 7.7832 53.1758C6.81966 53.1758 5.91146 53.0358 5.05859 52.7559C4.20573 52.4694 3.45703 52.0592 2.8125 51.5254C2.17448 50.985 1.66992 50.3242 1.29883 49.543C0.927734 48.7617 0.742188 47.873 0.742188 46.877C0.742188 46.2585 0.800781 45.6855 0.917969 45.1582C1.03516 44.6243 1.18815 44.1361 1.37695 43.6934C1.57227 43.2507 1.79036 42.8535 2.03125 42.502C2.27214 42.1439 2.51628 41.8314 2.76367 41.5645C3.01758 41.291 3.26172 41.0632 3.49609 40.8809C3.73698 40.6986 3.94531 40.5586 4.12109 40.4609C4.29036 40.3633 4.50521 40.2526 4.76562 40.1289C5.03255 40.0052 5.32227 39.8815 5.63477 39.7578C5.95378 39.6276 6.28906 39.5007 6.64062 39.377C6.99219 39.2533 7.35026 39.1426 7.71484 39.0449C8.07943 38.9473 8.43424 38.8691 8.7793 38.8105C9.13086 38.752 9.46289 38.7227 9.77539 38.7227C10.472 38.7227 11.0352 38.7552 11.4648 38.8203C11.8945 38.8854 12.2201 38.9668 12.4414 39.0645C12.6693 39.1556 12.8092 39.25 12.8613 39.3477C12.9199 39.4453 12.9264 39.5234 12.8809 39.582ZM20.6055 45.4805C20.625 45.9883 20.6087 46.4863 20.5566 46.9746C20.5046 47.4629 20.4264 47.9219 20.3223 48.3516C20.2246 48.7747 20.1009 49.1621 19.9512 49.5137C19.8079 49.8587 19.6517 50.1419 19.4824 50.3633C19.3717 50.513 19.2155 50.6888 19.0137 50.8906C18.8184 51.0859 18.597 51.291 18.3496 51.5059C18.1022 51.7142 17.8385 51.9225 17.5586 52.1309C17.2786 52.3392 17.002 52.5247 16.7285 52.6875C16.4551 52.8438 16.1914 52.9707 15.9375 53.0684C15.6901 53.1725 15.472 53.2246 15.2832 53.2246C15.0618 53.2246 14.8698 53.166 14.707 53.0488C14.5443 52.9382 14.4043 52.7917 14.2871 52.6094C14.1699 52.4206 14.0723 52.2122 13.9941 51.9844C13.916 51.75 13.8542 51.5189 13.8086 51.291C13.763 51.0566 13.7305 50.8353 13.7109 50.627C13.6979 50.4121 13.6914 50.2298 13.6914 50.0801C13.6914 49.5072 13.7435 48.9408 13.8477 48.3809C13.9518 47.8145 14.1113 47.2773 14.3262 46.7695C14.5475 46.2617 14.8242 45.793 15.1562 45.3633C15.4883 44.9271 15.8854 44.5527 16.3477 44.2402C16.6471 44.0384 16.9173 43.8561 17.1582 43.6934C17.3991 43.5241 17.6204 43.3841 17.8223 43.2734C18.0241 43.1628 18.2064 43.0781 18.3691 43.0195C18.5384 42.9544 18.6979 42.9219 18.8477 42.9219C18.9909 42.9219 19.1569 42.9609 19.3457 43.0391C19.541 43.1172 19.7266 43.2539 19.9023 43.4492C20.0846 43.638 20.2409 43.8984 20.3711 44.2305C20.5013 44.556 20.5794 44.9727 20.6055 45.4805ZM19.0625 47.1016C19.0625 46.8281 19.043 46.5156 19.0039 46.1641C18.9648 45.8125 18.8867 45.4837 18.7695 45.1777C18.6523 44.8717 18.4863 44.6146 18.2715 44.4062C18.0632 44.1914 17.7832 44.084 17.4316 44.084C17.2884 44.084 17.1387 44.1165 16.9824 44.1816C16.8327 44.2402 16.6927 44.3346 16.5625 44.4648C16.3021 44.7253 16.0905 45.0247 15.9277 45.3633C15.7715 45.6953 15.6478 46.0469 15.5566 46.418C15.4655 46.7891 15.4036 47.1634 15.3711 47.541C15.3385 47.9186 15.3223 48.2767 15.3223 48.6152C15.3223 48.791 15.3255 48.9961 15.332 49.2305C15.3385 49.4583 15.3581 49.696 15.3906 49.9434C15.4232 50.1842 15.4688 50.4251 15.5273 50.666C15.5924 50.9069 15.6771 51.1217 15.7812 51.3105C15.8919 51.4928 16.0286 51.6426 16.1914 51.7598C16.3542 51.877 16.5527 51.9355 16.7871 51.9355C17.0996 51.9355 17.373 51.8477 17.6074 51.6719C17.8418 51.4896 18.0436 51.2552 18.2129 50.9688C18.3822 50.6823 18.5189 50.36 18.623 50.002C18.7337 49.6439 18.8216 49.2858 18.8867 48.9277C18.9518 48.5697 18.9974 48.2311 19.0234 47.9121C19.0495 47.5866 19.0625 47.3164 19.0625 47.1016ZM30.6738 35.3828C30.8105 35.487 30.8496 35.6237 30.791 35.793C30.765 35.8646 30.7161 35.9492 30.6445 36.0469C30.5729 36.1445 30.4655 36.2552 30.3223 36.3789C30.1855 36.5026 30.0065 36.6393 29.7852 36.7891C29.5703 36.9388 29.3034 37.1016 28.9844 37.2773C29.1081 37.0951 29.1504 36.9421 29.1113 36.8184C29.0788 36.6882 29.0039 36.5872 28.8867 36.5156C28.776 36.4375 28.6393 36.3822 28.4766 36.3496C28.3203 36.3171 28.1771 36.3008 28.0469 36.3008C27.7474 36.3008 27.4447 36.3496 27.1387 36.4473C26.8392 36.5384 26.5885 36.6686 26.3867 36.8379C26.2956 36.9225 26.2012 37.0202 26.1035 37.1309C26.0059 37.235 25.9082 37.3783 25.8105 37.5605C25.7194 37.7428 25.625 37.974 25.5273 38.2539C25.4297 38.5273 25.332 38.8757 25.2344 39.2988C25.1432 39.7155 25.0521 40.2168 24.9609 40.8027C24.8763 41.3822 24.7917 42.069 24.707 42.8633L24.668 43.1758C25.0326 43.2083 25.3613 43.2311 25.6543 43.2441C25.9538 43.2507 26.2109 43.2572 26.4258 43.2637C26.6797 43.2702 26.9076 43.2702 27.1094 43.2637C27.3633 43.2572 27.6107 43.2376 27.8516 43.2051C28.0599 43.1725 28.2747 43.1302 28.4961 43.0781C28.724 43.0195 28.916 42.9349 29.0723 42.8242C28.7598 43.0456 28.4603 43.2539 28.1738 43.4492C27.8874 43.638 27.5977 43.804 27.3047 43.9473C27.0182 44.084 26.722 44.1947 26.416 44.2793C26.11 44.3574 25.7812 44.3965 25.4297 44.3965C25.2799 44.3965 25.1335 44.3932 24.9902 44.3867C24.8535 44.3802 24.7135 44.3704 24.5703 44.3574C24.5052 45.1257 24.4499 45.9167 24.4043 46.7305C24.3587 47.5443 24.3132 48.3516 24.2676 49.1523C24.2285 49.9531 24.1862 50.7311 24.1406 51.4863C24.0951 52.235 24.0397 52.9251 23.9746 53.5566C23.916 54.1947 23.8444 54.7578 23.7598 55.2461C23.6816 55.7344 23.584 56.1185 23.4668 56.3984C23.278 56.8607 23.0241 57.2969 22.7051 57.707C22.3861 58.1172 22.041 58.4915 21.6699 58.8301C21.3053 59.1751 20.931 59.4779 20.5469 59.7383C20.1628 60.0052 19.8112 60.2201 19.4922 60.3828C19.2057 60.5326 18.9095 60.64 18.6035 60.7051C18.2975 60.7702 17.9915 60.8027 17.6855 60.8027C17.3145 60.8027 16.9727 60.7604 16.6602 60.6758C16.3411 60.5977 16.0905 60.5 15.9082 60.3828C15.7975 60.3177 15.7454 60.2298 15.752 60.1191C15.7585 60.015 15.8008 59.8978 15.8789 59.7676C15.957 59.6439 16.0612 59.5137 16.1914 59.377C16.3216 59.2467 16.4583 59.1198 16.6016 58.9961C16.7448 58.8724 16.8848 58.7617 17.0215 58.6641C17.1582 58.5664 17.2689 58.4915 17.3535 58.4395C17.3145 58.5957 17.3112 58.7324 17.3438 58.8496C17.3698 58.9668 17.4479 59.0677 17.5781 59.1523C17.7018 59.2435 17.8841 59.3216 18.125 59.3867C18.3594 59.4518 18.6621 59.5104 19.0332 59.5625C19.7624 59.6732 20.3939 59.5039 20.9277 59.0547C21.4616 58.6055 21.849 57.873 22.0898 56.8574C22.194 56.4342 22.2819 55.9329 22.3535 55.3535C22.4251 54.7806 22.4902 54.1589 22.5488 53.4883C22.6074 52.8177 22.6562 52.1113 22.6953 51.3691C22.7409 50.627 22.7832 49.8717 22.8223 49.1035C22.8613 48.3353 22.9036 47.5703 22.9492 46.8086C22.9948 46.0404 23.0469 45.2982 23.1055 44.582C23.1055 44.5299 23.1087 44.4844 23.1152 44.4453C23.1217 44.3997 23.125 44.3509 23.125 44.2988C22.9232 44.3118 22.7214 44.3411 22.5195 44.3867C22.3242 44.4258 22.1289 44.4974 21.9336 44.6016C22.0638 44.4974 22.1875 44.3867 22.3047 44.2695C22.4219 44.1523 22.526 44.0449 22.6172 43.9473C22.7214 43.8301 22.819 43.7194 22.9102 43.6152C22.9427 43.5762 22.9785 43.5273 23.0176 43.4688C23.0501 43.4167 23.0859 43.3581 23.125 43.293C23.1706 43.2279 23.2194 43.1497 23.2715 43.0586C23.3887 42.043 23.5286 41.1836 23.6914 40.4805C23.8607 39.7708 24.0592 39.1686 24.2871 38.6738C24.5215 38.1725 24.7884 37.7526 25.0879 37.4141C25.3939 37.0755 25.7487 36.763 26.1523 36.4766C26.8034 36.0273 27.4121 35.6921 27.9785 35.4707C28.5449 35.2493 29.069 35.1387 29.5508 35.1387C29.9674 35.1387 30.3418 35.2201 30.6738 35.3828ZM37.4512 35.3828C37.5879 35.487 37.627 35.6237 37.5684 35.793C37.5423 35.8646 37.4935 35.9492 37.4219 36.0469C37.3503 36.1445 37.2428 36.2552 37.0996 36.3789C36.9629 36.5026 36.7839 36.6393 36.5625 36.7891C36.3477 36.9388 36.0807 37.1016 35.7617 37.2773C35.8854 37.0951 35.9277 36.9421 35.8887 36.8184C35.8561 36.6882 35.7812 36.5872 35.6641 36.5156C35.5534 36.4375 35.4167 36.3822 35.2539 36.3496C35.0977 36.3171 34.9544 36.3008 34.8242 36.3008C34.5247 36.3008 34.222 36.3496 33.916 36.4473C33.6165 36.5384 33.3659 36.6686 33.1641 36.8379C33.0729 36.9225 32.9785 37.0202 32.8809 37.1309C32.7832 37.235 32.6855 37.3783 32.5879 37.5605C32.4967 37.7428 32.4023 37.974 32.3047 38.2539C32.207 38.5273 32.1094 38.8757 32.0117 39.2988C31.9206 39.7155 31.8294 40.2168 31.7383 40.8027C31.6536 41.3822 31.569 42.069 31.4844 42.8633L31.4453 43.1758C31.8099 43.2083 32.1387 43.2311 32.4316 43.2441C32.7311 43.2507 32.9883 43.2572 33.2031 43.2637C33.457 43.2702 33.6849 43.2702 33.8867 43.2637C34.1406 43.2572 34.388 43.2376 34.6289 43.2051C34.8372 43.1725 35.0521 43.1302 35.2734 43.0781C35.5013 43.0195 35.6934 42.9349 35.8496 42.8242C35.5371 43.0456 35.2376 43.2539 34.9512 43.4492C34.6647 43.638 34.375 43.804 34.082 43.9473C33.7956 44.084 33.4993 44.1947 33.1934 44.2793C32.8874 44.3574 32.5586 44.3965 32.207 44.3965C32.0573 44.3965 31.9108 44.3932 31.7676 44.3867C31.6309 44.3802 31.4909 44.3704 31.3477 44.3574C31.2826 45.1257 31.2272 45.9167 31.1816 46.7305C31.1361 47.5443 31.0905 48.3516 31.0449 49.1523C31.0059 49.9531 30.9635 50.7311 30.918 51.4863C30.8724 52.235 30.8171 52.9251 30.752 53.5566C30.6934 54.1947 30.6217 54.7578 30.5371 55.2461C30.459 55.7344 30.3613 56.1185 30.2441 56.3984C30.0553 56.8607 29.8014 57.2969 29.4824 57.707C29.1634 58.1172 28.8184 58.4915 28.4473 58.8301C28.0827 59.1751 27.7083 59.4779 27.3242 59.7383C26.9401 60.0052 26.5885 60.2201 26.2695 60.3828C25.9831 60.5326 25.6868 60.64 25.3809 60.7051C25.0749 60.7702 24.7689 60.8027 24.4629 60.8027C24.0918 60.8027 23.75 60.7604 23.4375 60.6758C23.1185 60.5977 22.8678 60.5 22.6855 60.3828C22.5749 60.3177 22.5228 60.2298 22.5293 60.1191C22.5358 60.015 22.5781 59.8978 22.6562 59.7676C22.7344 59.6439 22.8385 59.5137 22.9688 59.377C23.099 59.2467 23.2357 59.1198 23.3789 58.9961C23.5221 58.8724 23.6621 58.7617 23.7988 58.6641C23.9355 58.5664 24.0462 58.4915 24.1309 58.4395C24.0918 58.5957 24.0885 58.7324 24.1211 58.8496C24.1471 58.9668 24.2253 59.0677 24.3555 59.1523C24.4792 59.2435 24.6615 59.3216 24.9023 59.3867C25.1367 59.4518 25.4395 59.5104 25.8105 59.5625C26.5397 59.6732 27.1712 59.5039 27.7051 59.0547C28.2389 58.6055 28.6263 57.873 28.8672 56.8574C28.9714 56.4342 29.0592 55.9329 29.1309 55.3535C29.2025 54.7806 29.2676 54.1589 29.3262 53.4883C29.3848 52.8177 29.4336 52.1113 29.4727 51.3691C29.5182 50.627 29.5605 49.8717 29.5996 49.1035C29.6387 48.3353 29.681 47.5703 29.7266 46.8086C29.7721 46.0404 29.8242 45.2982 29.8828 44.582C29.8828 44.5299 29.8861 44.4844 29.8926 44.4453C29.8991 44.3997 29.9023 44.3509 29.9023 44.2988C29.7005 44.3118 29.4987 44.3411 29.2969 44.3867C29.1016 44.4258 28.9062 44.4974 28.7109 44.6016C28.8411 44.4974 28.9648 44.3867 29.082 44.2695C29.1992 44.1523 29.3034 44.0449 29.3945 43.9473C29.4987 43.8301 29.5964 43.7194 29.6875 43.6152C29.7201 43.5762 29.7559 43.5273 29.7949 43.4688C29.8275 43.4167 29.8633 43.3581 29.9023 43.293C29.9479 43.2279 29.9967 43.1497 30.0488 43.0586C30.166 42.043 30.306 41.1836 30.4688 40.4805C30.638 39.7708 30.8366 39.1686 31.0645 38.6738C31.2988 38.1725 31.5658 37.7526 31.8652 37.4141C32.1712 37.0755 32.526 36.763 32.9297 36.4766C33.5807 36.0273 34.1895 35.6921 34.7559 35.4707C35.3223 35.2493 35.8464 35.1387 36.3281 35.1387C36.7448 35.1387 37.1191 35.2201 37.4512 35.3828ZM40.498 50.1582C40.153 50.5488 39.834 50.8939 39.541 51.1934C39.2546 51.4863 39.0007 51.7337 38.7793 51.9355C38.5189 52.1699 38.2845 52.3717 38.0762 52.541C37.5033 52.9967 37.0052 53.2246 36.582 53.2246C36.3411 53.2246 36.1328 53.1595 35.957 53.0293C35.7878 52.9056 35.6413 52.7428 35.5176 52.541C35.3939 52.3392 35.293 52.1113 35.2148 51.8574C35.1367 51.6035 35.0749 51.3496 35.0293 51.0957C34.9902 50.8353 34.9609 50.5879 34.9414 50.3535C34.9284 50.1191 34.9219 49.9206 34.9219 49.7578C34.9219 49.3216 34.9707 48.8496 35.0684 48.3418C35.1725 47.834 35.319 47.3294 35.5078 46.8281C35.7031 46.3203 35.9408 45.8353 36.2207 45.373C36.5007 44.9043 36.8197 44.4909 37.1777 44.1328C37.5423 43.7682 37.9395 43.4785 38.3691 43.2637C38.8053 43.0488 39.2741 42.9414 39.7754 42.9414C39.9121 42.9414 40.026 42.9674 40.1172 43.0195C40.2083 43.0651 40.2832 43.1302 40.3418 43.2148C40.4004 43.2995 40.4395 43.3939 40.459 43.498C40.485 43.6022 40.498 43.7096 40.498 43.8203C40.498 44.1068 40.4329 44.3932 40.3027 44.6797C40.1725 44.9661 39.9967 45.2493 39.7754 45.5293C39.5605 45.8027 39.3132 46.0729 39.0332 46.3398C38.7533 46.6003 38.4603 46.8509 38.1543 47.0918C37.8548 47.3262 37.5553 47.5475 37.2559 47.7559C36.9564 47.9642 36.6829 48.153 36.4355 48.3223V48.5371C36.4355 48.6999 36.4421 48.8984 36.4551 49.1328C36.4746 49.3607 36.5039 49.6016 36.543 49.8555C36.5885 50.1029 36.6471 50.3503 36.7188 50.5977C36.7904 50.8451 36.8815 51.0664 36.9922 51.2617C37.1029 51.457 37.2331 51.6165 37.3828 51.7402C37.5391 51.8574 37.7181 51.916 37.9199 51.916C38.0111 51.916 38.1055 51.903 38.2031 51.877C38.3008 51.8444 38.3984 51.7923 38.4961 51.7207C38.6654 51.584 38.8574 51.3952 39.0723 51.1543C39.2546 50.946 39.4661 50.6758 39.707 50.3438C39.9479 50.0117 40.2116 49.5918 40.498 49.084V50.1582ZM38.6816 44.3965C38.6035 44.3053 38.5026 44.2467 38.3789 44.2207C38.2552 44.1947 38.1217 44.2012 37.9785 44.2402C37.8418 44.2793 37.7051 44.3542 37.5684 44.4648C37.4382 44.5755 37.3275 44.722 37.2363 44.9043C37.1061 45.1647 36.9629 45.5391 36.8066 46.0273C36.6504 46.5091 36.5397 47.0658 36.4746 47.6973C36.6829 47.5736 36.8978 47.4303 37.1191 47.2676C37.3405 47.1048 37.5521 46.9323 37.7539 46.75C37.9622 46.5677 38.1478 46.3789 38.3105 46.1836C38.4798 45.9818 38.61 45.7799 38.7012 45.5781C38.7988 45.3698 38.8509 45.168 38.8574 44.9727C38.8639 44.7708 38.8053 44.5788 38.6816 44.3965ZM47.2559 50.1582C46.9108 50.5488 46.5918 50.8939 46.2988 51.1934C46.0124 51.4863 45.7585 51.7337 45.5371 51.9355C45.2767 52.1699 45.0423 52.3717 44.834 52.541C44.2611 52.9967 43.763 53.2246 43.3398 53.2246C43.099 53.2246 42.8906 53.1595 42.7148 53.0293C42.5456 52.9056 42.3991 52.7428 42.2754 52.541C42.1517 52.3392 42.0508 52.1113 41.9727 51.8574C41.8945 51.6035 41.8327 51.3496 41.7871 51.0957C41.748 50.8353 41.7188 50.5879 41.6992 50.3535C41.6862 50.1191 41.6797 49.9206 41.6797 49.7578C41.6797 49.3216 41.7285 48.8496 41.8262 48.3418C41.9303 47.834 42.0768 47.3294 42.2656 46.8281C42.4609 46.3203 42.6986 45.8353 42.9785 45.373C43.2585 44.9043 43.5775 44.4909 43.9355 44.1328C44.3001 43.7682 44.6973 43.4785 45.127 43.2637C45.5632 43.0488 46.0319 42.9414 46.5332 42.9414C46.6699 42.9414 46.7839 42.9674 46.875 43.0195C46.9661 43.0651 47.041 43.1302 47.0996 43.2148C47.1582 43.2995 47.1973 43.3939 47.2168 43.498C47.2428 43.6022 47.2559 43.7096 47.2559 43.8203C47.2559 44.1068 47.1908 44.3932 47.0605 44.6797C46.9303 44.9661 46.7546 45.2493 46.5332 45.5293C46.3184 45.8027 46.071 46.0729 45.791 46.3398C45.5111 46.6003 45.2181 46.8509 44.9121 47.0918C44.6126 47.3262 44.3132 47.5475 44.0137 47.7559C43.7142 47.9642 43.4408 48.153 43.1934 48.3223V48.5371C43.1934 48.6999 43.1999 48.8984 43.2129 49.1328C43.2324 49.3607 43.2617 49.6016 43.3008 49.8555C43.3464 50.1029 43.4049 50.3503 43.4766 50.5977C43.5482 50.8451 43.6393 51.0664 43.75 51.2617C43.8607 51.457 43.9909 51.6165 44.1406 51.7402C44.2969 51.8574 44.4759 51.916 44.6777 51.916C44.7689 51.916 44.8633 51.903 44.9609 51.877C45.0586 51.8444 45.1562 51.7923 45.2539 51.7207C45.4232 51.584 45.6152 51.3952 45.8301 51.1543C46.0124 50.946 46.224 50.6758 46.4648 50.3438C46.7057 50.0117 46.9694 49.5918 47.2559 49.084V50.1582ZM45.4395 44.3965C45.3613 44.3053 45.2604 44.2467 45.1367 44.2207C45.013 44.1947 44.8796 44.2012 44.7363 44.2402C44.5996 44.2793 44.4629 44.3542 44.3262 44.4648C44.196 44.5755 44.0853 44.722 43.9941 44.9043C43.8639 45.1647 43.7207 45.5391 43.5645 46.0273C43.4082 46.5091 43.2975 47.0658 43.2324 47.6973C43.4408 47.5736 43.6556 47.4303 43.877 47.2676C44.0983 47.1048 44.3099 46.9323 44.5117 46.75C44.7201 46.5677 44.9056 46.3789 45.0684 46.1836C45.2376 45.9818 45.3678 45.7799 45.459 45.5781C45.5566 45.3698 45.6087 45.168 45.6152 44.9727C45.6217 44.7708 45.5632 44.5788 45.4395 44.3965Z" fill="#FFF8E8"/>
<g clip-path="url(#clip0_54_1416)">
<path d="M51.7998 0.248835C50.8755 0.657625 50.2357 1.65293 50.2357 2.73712C50.2179 3.60801 50.4312 4.0168 55.4433 12.8858C58.3226 17.969 60.7576 22.2524 60.8464 22.3945C60.9709 22.6078 60.882 22.8744 60.5265 23.3721C59.7267 24.5629 59.9044 25.3272 61.7884 28.6152C63.5125 31.6367 64.2767 33.3074 64.4544 34.4449L64.5789 35.1914H63.939C63.1037 35.1914 62.215 35.9201 62.215 36.6133C62.215 36.8799 62.375 37.3065 62.5882 37.5731C62.8904 37.9641 63.0859 38.0352 63.8502 38.0352H64.7388L64.6144 38.835C64.4189 40.2568 63.8324 41.7498 62.2861 44.8246C61.1486 47.0996 60.7931 47.9705 60.7931 48.5215C60.7931 49.2857 61.113 50.0856 61.5752 50.4588C61.824 50.6543 61.0597 52.2717 55.4789 63.3445C51.9597 70.294 48.956 76.4258 48.7961 76.959C47.4808 81.4024 49.3648 86.5033 53.2927 89.116C53.9503 89.5426 55.1412 90.1291 55.9054 90.4135L57.3273 90.9111H77.4113H97.4953L98.8283 90.5024C104.498 88.7428 107.857 82.5576 106.204 76.959C106.044 76.4258 103.023 70.2762 99.5037 63.2912C94.065 52.5205 93.1408 50.5832 93.3896 50.441C93.8339 50.1922 94.2072 49.3213 94.2072 48.5215C94.2072 47.9705 93.8517 47.0996 92.6964 44.8068C91.1324 41.6609 90.5814 40.2746 90.3859 38.8705L90.2615 38.0352H91.0791C93.283 38.0352 93.3363 35.4758 91.1502 35.2092L90.3503 35.1025L90.5814 34.125C90.8835 32.9875 91.9144 30.8369 93.6562 27.7266C95.1136 25.1672 95.238 24.5096 94.456 23.3543C94.1183 22.8744 94.0294 22.59 94.1539 22.3945C94.2427 22.2524 96.6777 17.969 99.557 12.8858C104.569 4.0168 104.782 3.60801 104.765 2.73712C104.765 1.63516 104.125 0.639849 103.165 0.248835C102.294 -0.124411 52.6351 -0.106634 51.7998 0.248835ZM71.0128 4.65665C72.2925 6.8961 73.3234 8.01583 74.6386 8.65567C75.5273 9.10001 75.8294 9.15333 77.5002 9.15333C79.1709 9.15333 79.473 9.10001 80.3617 8.65567C81.6769 8.01583 82.7078 6.8961 83.9875 4.65665L85.0361 2.84376H93.4429C98.064 2.84376 101.85 2.89707 101.85 2.96817C101.832 3.05704 99.4148 7.39375 96.4466 12.6192L91.0435 22.1279H77.5002H63.939L58.5537 12.6192C55.5855 7.39375 53.1683 3.05704 53.1505 2.96817C53.1505 2.89707 56.9363 2.84376 61.5574 2.84376H69.9642L71.0128 4.65665ZM81.6591 3.05704C80.575 4.90547 80.0418 5.56309 79.3486 5.97188C77.7134 6.93165 75.3851 6.38067 74.4253 4.83438C74.1943 4.47891 73.8388 3.87461 73.6078 3.50138L73.199 2.84376H77.5002C80.8771 2.84376 81.7658 2.89707 81.6591 3.05704ZM91.7189 25.2561C91.7189 25.3627 91.1146 26.5357 90.3681 27.851C88.4664 31.2102 88.1998 31.8856 87.5599 34.6938L87.4533 35.1914H84.6273H81.7836L81.3748 34.4449C79.6863 31.3879 75.1007 31.4945 73.5189 34.6227L73.2168 35.1914L70.3552 35.1559L67.4937 35.1025L67.2627 34.0361C66.925 32.3477 66.1252 30.4637 64.5789 27.7621C63.7791 26.3936 63.1925 25.2205 63.2459 25.1672C63.2992 25.1139 69.7332 25.0606 77.5357 25.0606C87.8976 25.0606 91.7189 25.1139 91.7189 25.2561ZM78.5488 35.4758C79.4552 36.24 79.2775 37.5731 78.1933 38.1418C77.0914 38.7106 75.9005 37.9107 75.9005 36.6133C75.9005 36.0801 76.0072 35.8313 76.4515 35.4758C76.7537 35.2092 77.2158 35.0137 77.5002 35.0137C77.7845 35.0137 78.2466 35.2092 78.5488 35.4758ZM73.6078 38.8883L74.0699 39.7236L73.199 40.7012C72.0615 41.9631 70.8351 43.9537 69.7509 46.2998L68.8978 48.166H66.3562C64.9521 48.166 63.8146 48.1305 63.8146 48.0772C63.8146 48.0238 64.4544 46.7264 65.2365 45.1979C66.605 42.5141 67.547 39.7414 67.547 38.4617V38.0352H70.3552H73.1457L73.6078 38.8883ZM87.5421 39.0483C87.7199 40.6301 88.5908 42.994 89.906 45.5533C90.5636 46.8508 91.1324 47.9527 91.1502 48.0238C91.1857 48.1127 90.066 48.166 88.6619 48.166H86.1203L85.0183 45.891C83.8097 43.385 82.85 41.8565 81.6947 40.5768L80.9304 39.7236L81.3925 38.8883L81.8546 38.0352H84.6273H87.4177L87.5421 39.0483ZM78.5843 41.4832C79.3841 42.0342 81.0193 44.2914 82.0324 46.2287L83.0277 48.166H77.5179H71.9904L72.808 46.5131C73.8388 44.4869 74.7453 43.1184 75.8472 41.9986C76.6115 41.2344 76.7892 41.1455 77.4291 41.1633C77.8378 41.1811 78.3533 41.3232 78.5843 41.4832ZM67.1738 51.7563C66.9605 52.1828 66.4984 52.9649 66.1607 53.4981C65.0943 55.151 65.432 56.4129 66.9072 56.3063C67.5293 56.2529 67.707 56.1463 68.258 55.4176C68.5957 54.9555 69.3066 53.7824 69.822 52.8049L70.764 51.0098H77.5179H84.2541L84.805 52.1117C85.5871 53.6758 86.6712 55.4887 87.0978 55.9508C87.5599 56.4484 88.5019 56.4662 89.0707 56.0041C89.675 55.5242 89.6039 54.6711 88.8396 53.4981C88.5019 52.9649 88.0398 52.1828 87.8265 51.7563L87.4533 51.0098H88.7685H90.0837L93.283 57.266C102.472 75.3416 103.449 77.3322 103.663 78.7008C104.089 81.3135 103.201 83.9262 101.245 85.8102C100.019 86.9832 99.1304 87.4986 97.6375 87.8897C96.0912 88.2984 58.8914 88.2807 57.3273 87.8897C53.7904 86.9654 51.1955 83.5885 51.1955 79.8916C51.1955 77.9543 51.0711 78.2387 61.4507 57.7992L64.8988 51.0098H66.2318H67.547L67.1738 51.7563Z" fill="#FEF7E7"/>
<path d="M62.9791 59.541C62.748 59.6299 62.4281 59.9498 62.2504 60.2342C62.0727 60.5186 59.9398 64.7131 57.5049 69.5475L53.0615 78.3453V79.9271C53.0615 81.2424 53.1504 81.6512 53.5414 82.5043C54.199 83.9084 55.2832 85.0281 56.6873 85.7213L57.8604 86.29H77.5H97.1396L98.1527 85.8102C99.5568 85.1525 100.677 84.0684 101.37 82.6643C101.885 81.6156 101.938 81.349 101.938 79.9271V78.3631L98.0639 70.6672C95.9488 66.4371 94.0293 62.8113 93.8338 62.6336C93.4961 62.3314 93.034 62.2781 89.9592 62.1715C85.4625 62.0293 84.0939 61.8516 78.3887 60.7852C74.4252 60.0387 71.8836 59.7365 67.7424 59.541C63.4234 59.3455 63.4768 59.3455 62.9791 59.541ZM69.2887 62.4736C72.0969 62.598 74.6562 62.9357 78.5486 63.7178C82.7609 64.5354 85.5336 64.8908 89.1061 65.0152L92.092 65.1396L95.5756 72.018C98.0105 76.8346 99.077 79.1273 99.1303 79.6605C99.308 81.2602 98.1883 82.8775 96.5887 83.3396C96.091 83.4996 90.8479 83.5352 77.1445 83.4996C59.1756 83.4463 58.358 83.4285 57.7182 83.1086C56.3496 82.4332 55.5498 80.6736 55.9586 79.234C56.0652 78.8074 58.0025 74.8084 60.2598 70.3295L64.3654 62.207L65.734 62.2959C66.4805 62.3314 68.0801 62.4203 69.2887 62.4736Z" fill="#FEF7E7"/>
</g>
<path d="M115.584 45.3438C115.525 45.3698 115.438 45.4186 115.32 45.4902C115.216 45.5553 115.066 45.653 114.871 45.7832C114.682 45.9069 114.432 46.0794 114.119 46.3008C114.171 46.2031 114.168 46.1283 114.109 46.0762C114.057 46.0241 113.986 45.9883 113.895 45.9688C113.784 45.9427 113.654 45.9329 113.504 45.9395C113.27 45.959 112.931 45.9818 112.488 46.0078C112.052 46.0339 111.557 46.0566 111.004 46.0762C111.004 47.1178 110.997 47.9674 110.984 48.625C110.971 49.276 110.962 49.7839 110.955 50.1484C110.942 50.5781 110.929 50.8939 110.916 51.0957C110.903 51.2259 110.864 51.3529 110.799 51.4766C110.747 51.5872 110.662 51.7044 110.545 51.8281C110.434 51.9518 110.278 52.0625 110.076 52.1602H114.5C114.708 52.1602 114.92 52.1471 115.135 52.1211C115.317 52.1016 115.512 52.069 115.721 52.0234C115.929 51.9779 116.128 51.9095 116.316 51.8184C115.991 52.1243 115.669 52.3587 115.35 52.5215C115.031 52.6842 114.738 52.8014 114.471 52.873C114.158 52.9577 113.862 53.0065 113.582 53.0195C112.944 53.0195 112.342 53.0228 111.775 53.0293C111.209 53.0358 110.698 53.0488 110.242 53.0684C109.786 53.0879 109.396 53.1107 109.07 53.1367C108.751 53.1693 108.52 53.2051 108.377 53.2441C108.579 53.0423 108.735 52.8438 108.846 52.6484C108.963 52.4531 109.051 52.235 109.109 51.9941C109.168 51.7533 109.204 51.4831 109.217 51.1836C109.236 50.8776 109.243 50.5163 109.236 50.0996V46.0957C109.048 46.0957 108.862 46.0924 108.68 46.0859C108.504 46.0794 108.331 46.0697 108.162 46.0566L109.236 45.5C109.236 45.1484 109.233 44.7806 109.227 44.3965C109.227 44.0059 109.227 43.5892 109.227 43.1465C109.227 42.7038 109.223 42.2285 109.217 41.7207C109.217 41.2064 109.217 40.6465 109.217 40.041C108.924 40.041 108.647 40.0378 108.387 40.0312C108.126 40.0247 107.885 40.015 107.664 40.002L109.48 39.0352C110.717 39.0352 111.772 39.0286 112.645 39.0156C113.523 38.9961 114.249 38.9766 114.822 38.957C115.486 38.931 116.04 38.9049 116.482 38.8789C116.704 38.8789 116.85 38.8984 116.922 38.9375C116.993 38.9701 117.023 39.0091 117.01 39.0547C116.997 39.0938 116.958 39.1361 116.893 39.1816C116.827 39.2272 116.769 39.2598 116.717 39.2793C116.665 39.3053 116.567 39.3607 116.424 39.4453C116.3 39.5169 116.124 39.6309 115.896 39.7871C115.675 39.9368 115.369 40.1419 114.979 40.4023C115.109 40.2591 115.164 40.1549 115.145 40.0898C115.125 40.0182 115.079 39.9661 115.008 39.9336C114.923 39.901 114.806 39.8848 114.656 39.8848C114.533 39.8978 114.347 39.9108 114.1 39.9238C113.852 39.9303 113.562 39.9401 113.23 39.9531C112.905 39.9661 112.55 39.9792 112.166 39.9922C111.782 40.0052 111.388 40.015 110.984 40.0215C110.991 41.0632 110.994 41.9974 110.994 42.8242C111.001 43.651 111.004 44.4095 111.004 45.0996C111.668 45.0931 112.264 45.0833 112.791 45.0703C113.325 45.0508 113.781 45.0312 114.158 45.0117C114.601 44.9857 114.995 44.9629 115.34 44.9434C115.555 44.9368 115.698 44.9499 115.77 44.9824C115.841 45.015 115.87 45.054 115.857 45.0996C115.844 45.1452 115.805 45.194 115.74 45.2461C115.682 45.2917 115.63 45.3242 115.584 45.3438ZM127.479 43C127.524 43.013 127.537 43.0618 127.518 43.1465C127.505 43.2246 127.465 43.3255 127.4 43.4492C127.342 43.5664 127.26 43.6966 127.156 43.8398C127.052 43.9766 126.932 44.1133 126.795 44.25C126.665 44.3802 126.521 44.5007 126.365 44.6113C126.215 44.7155 126.059 44.7904 125.896 44.8359C125.968 44.6927 125.997 44.5755 125.984 44.4844C125.971 44.3867 125.942 44.3118 125.896 44.2598C125.844 44.1947 125.776 44.1491 125.691 44.123C125.444 44.0514 125.19 44.0482 124.93 44.1133C124.676 44.1719 124.458 44.3411 124.275 44.6211L122.752 47.1602C122.928 47.7201 123.123 48.2767 123.338 48.8301C123.553 49.3835 123.787 49.8815 124.041 50.3242C124.295 50.7669 124.572 51.1283 124.871 51.4082C125.177 51.6816 125.506 51.8184 125.857 51.8184C125.988 51.8184 126.128 51.7891 126.277 51.7305C126.434 51.6654 126.593 51.5612 126.756 51.418C126.391 51.8021 126.056 52.1081 125.75 52.3359C125.444 52.5573 125.18 52.7266 124.959 52.8438C124.699 52.9805 124.464 53.0716 124.256 53.1172C123.937 53.013 123.647 52.834 123.387 52.5801C123.133 52.3197 122.898 52.0104 122.684 51.6523C122.475 51.2878 122.283 50.8874 122.107 50.4512C121.932 50.015 121.766 49.5658 121.609 49.1035C121.479 49.3249 121.32 49.5592 121.131 49.8066C120.949 50.054 120.75 50.3014 120.535 50.5488C120.32 50.7897 120.099 51.0241 119.871 51.252C119.643 51.4733 119.425 51.6686 119.217 51.8379C119.354 51.8509 119.48 51.8607 119.598 51.8672C119.721 51.8737 119.839 51.877 119.949 51.877C120.353 51.877 120.659 51.8509 120.867 51.7988C121.076 51.7467 121.193 51.7142 121.219 51.7012C120.848 51.9941 120.532 52.2383 120.271 52.4336C120.011 52.6224 119.767 52.7721 119.539 52.8828C119.318 52.9935 119.096 53.0684 118.875 53.1074C118.66 53.153 118.406 53.1758 118.113 53.1758C117.788 53.1758 117.387 53.1562 116.912 53.1172L118.357 51.6816C118.429 51.7012 118.501 51.7207 118.572 51.7402C118.65 51.7533 118.725 51.7663 118.797 51.7793C118.94 51.6686 119.077 51.5384 119.207 51.3887C119.337 51.2324 119.454 51.0892 119.559 50.959C119.676 50.8027 119.786 50.6432 119.891 50.4805C120.04 50.2331 120.236 49.8978 120.477 49.4746C120.717 49.0514 120.991 48.5924 121.297 48.0977C121.193 47.7526 121.089 47.4141 120.984 47.082C120.88 46.75 120.773 46.4342 120.662 46.1348C120.558 45.8288 120.447 45.5488 120.33 45.2949C120.219 45.0345 120.102 44.8099 119.979 44.6211C119.868 44.4583 119.738 44.3411 119.588 44.2695C119.445 44.1979 119.295 44.1621 119.139 44.1621C118.885 44.1621 118.641 44.2305 118.406 44.3672C118.172 44.4974 117.98 44.6406 117.83 44.7969C117.986 44.5885 118.159 44.3704 118.348 44.1426C118.543 43.9082 118.751 43.6966 118.973 43.5078C119.201 43.3125 119.438 43.153 119.686 43.0293C119.933 42.9056 120.19 42.8438 120.457 42.8438C120.698 42.8438 120.923 42.9186 121.131 43.0684C121.346 43.2181 121.535 43.4688 121.697 43.8203C121.795 44.0612 121.909 44.3997 122.039 44.8359C122.169 45.2656 122.316 45.7474 122.479 46.2812C122.817 45.7995 123.152 45.3568 123.484 44.9531C123.816 44.5495 124.139 44.224 124.451 43.9766C124.835 43.6966 125.19 43.4818 125.516 43.332C125.841 43.1823 126.131 43.0781 126.385 43.0195C126.639 42.9609 126.857 42.9382 127.039 42.9512C127.228 42.9577 127.374 42.974 127.479 43ZM131.902 58.0781C131.661 58.3255 131.44 58.5371 131.238 58.7129C131.043 58.8952 130.87 59.0417 130.721 59.1523C130.551 59.2826 130.392 59.3932 130.242 59.4844C130.066 59.5951 129.887 59.6764 129.705 59.7285C129.523 59.7871 129.354 59.8229 129.197 59.8359C129.041 59.849 128.904 59.8392 128.787 59.8066C128.676 59.7741 128.602 59.7253 128.562 59.6602C128.517 59.6016 128.494 59.4323 128.494 59.1523C128.494 58.8789 128.507 58.5371 128.533 58.127C128.559 57.7233 128.589 57.2741 128.621 56.7793C128.66 56.2845 128.693 55.7832 128.719 55.2754L128.816 53.1172C128.647 53.1172 128.484 53.1139 128.328 53.1074C128.172 53.1009 128.022 53.0977 127.879 53.0977C127.736 53.0977 127.612 53.0977 127.508 53.0977C127.41 53.1042 127.335 53.1172 127.283 53.1367C127.596 52.9154 127.872 52.7005 128.113 52.4922C128.361 52.2839 128.615 52.1146 128.875 51.9844C128.895 51.4896 128.914 50.9818 128.934 50.4609C128.96 49.9401 128.982 49.4323 129.002 48.9375C129.028 48.4362 129.048 47.9609 129.061 47.5117C129.08 47.056 129.096 46.6523 129.109 46.3008C129.129 45.9427 129.142 45.6465 129.148 45.4121C129.155 45.1712 129.158 45.015 129.158 44.9434C129.158 44.7415 129.087 44.569 128.943 44.4258C128.807 44.276 128.624 44.2012 128.396 44.2012C128.286 44.2012 128.165 44.224 128.035 44.2695C127.905 44.3086 127.765 44.3737 127.615 44.4648C127.798 44.2956 127.983 44.1198 128.172 43.9375C128.367 43.7552 128.562 43.5924 128.758 43.4492C128.96 43.2995 129.161 43.179 129.363 43.0879C129.572 42.9902 129.783 42.9414 129.998 42.9414C130.2 42.9414 130.366 43.0065 130.496 43.1367C130.633 43.2669 130.701 43.4883 130.701 43.8008C130.701 43.9635 130.691 44.3021 130.672 44.8164C130.659 45.3242 130.636 45.946 130.604 46.6816C130.734 46.3626 130.851 46.0957 130.955 45.8809C131.066 45.6595 131.157 45.4805 131.229 45.3438C131.313 45.181 131.385 45.054 131.443 44.9629C131.645 44.6699 131.867 44.3932 132.107 44.1328C132.348 43.8724 132.592 43.6413 132.84 43.4395C133.087 43.2376 133.335 43.0716 133.582 42.9414C133.829 42.8047 134.067 42.7168 134.295 42.6777C134.529 42.6452 134.757 42.6745 134.979 42.7656C135.2 42.8503 135.398 43.0033 135.574 43.2246C135.75 43.446 135.896 43.7357 136.014 44.0938C136.131 44.4453 136.199 44.8685 136.219 45.3633C136.232 45.9167 136.173 46.4831 136.043 47.0625C135.913 47.6354 135.721 48.1986 135.467 48.752C135.219 49.2988 134.917 49.8197 134.559 50.3145C134.201 50.8092 133.8 51.252 133.357 51.6426C132.915 52.0267 132.436 52.349 131.922 52.6094C131.408 52.8633 130.874 53.026 130.32 53.0977L130.096 58.2832C130.148 58.3092 130.21 58.3353 130.281 58.3613C130.34 58.3809 130.408 58.3971 130.486 58.4102C130.571 58.4297 130.669 58.4395 130.779 58.4395C130.929 58.4395 131.102 58.4134 131.297 58.3613C131.492 58.3158 131.694 58.2214 131.902 58.0781ZM131.277 51.7988C131.466 51.7988 131.652 51.7956 131.834 51.7891C132.016 51.776 132.186 51.7598 132.342 51.7402C132.505 51.7142 132.651 51.6816 132.781 51.6426C132.911 51.597 133.019 51.5417 133.104 51.4766C133.234 51.3789 133.39 51.2161 133.572 50.9883C133.755 50.7604 133.927 50.474 134.09 50.1289C134.259 49.7773 134.402 49.3672 134.52 48.8984C134.637 48.4297 134.695 47.9023 134.695 47.3164C134.695 47.1341 134.686 46.916 134.666 46.6621C134.653 46.4082 134.624 46.1478 134.578 45.8809C134.533 45.6139 134.467 45.3568 134.383 45.1094C134.298 44.8555 134.188 44.6406 134.051 44.4648C133.921 44.2826 133.761 44.1523 133.572 44.0742C133.383 43.9961 133.159 43.9993 132.898 44.084C132.762 44.1296 132.612 44.237 132.449 44.4062C132.286 44.569 132.117 44.8164 131.941 45.1484C131.772 45.4805 131.6 45.9069 131.424 46.4277C131.255 46.9421 131.098 47.5736 130.955 48.3223C130.91 48.5111 130.857 48.7227 130.799 48.957C130.747 49.1589 130.688 49.3965 130.623 49.6699C130.564 49.9368 130.503 50.2266 130.438 50.5391L130.379 51.7793C130.529 51.7793 130.678 51.7826 130.828 51.7891C130.978 51.7956 131.128 51.7988 131.277 51.7988ZM142.547 50.4414C142.417 50.6107 142.27 50.7995 142.107 51.0078C141.951 51.2096 141.782 51.418 141.6 51.6328C141.417 51.8477 141.225 52.056 141.023 52.2578C140.822 52.4531 140.61 52.6289 140.389 52.7852C140.174 52.9349 139.952 53.0521 139.725 53.1367C139.497 53.2214 139.269 53.2572 139.041 53.2441C138.846 53.2246 138.686 53.1367 138.562 52.9805C138.439 52.8177 138.341 52.6126 138.27 52.3652C138.198 52.1113 138.152 51.8216 138.133 51.4961C138.113 51.1706 138.11 50.832 138.123 50.4805C138.13 50.3047 138.146 49.9954 138.172 49.5527C138.198 49.1035 138.227 48.5729 138.26 47.9609C138.299 47.349 138.338 46.6784 138.377 45.9492C138.423 45.2201 138.465 44.4811 138.504 43.7324C138.543 42.9837 138.582 42.2513 138.621 41.5352C138.66 40.8125 138.693 40.1582 138.719 39.5723C138.751 38.9863 138.777 38.4915 138.797 38.0879C138.816 37.6777 138.826 37.4076 138.826 37.2773C138.826 36.9258 138.797 36.6523 138.738 36.457C138.686 36.2617 138.549 36.1641 138.328 36.1641C138.113 36.1641 137.798 36.2617 137.381 36.457C137.667 36.2096 137.915 35.998 138.123 35.8223C138.331 35.6465 138.504 35.5033 138.641 35.3926C138.803 35.2689 138.937 35.1647 139.041 35.0801C139.236 34.9173 139.451 34.8359 139.686 34.8359C139.887 34.8359 140.06 34.9108 140.203 35.0605C140.353 35.2103 140.415 35.4447 140.389 35.7637C140.382 35.8874 140.366 36.1543 140.34 36.5645C140.32 36.9681 140.298 37.4694 140.271 38.0684C140.245 38.6608 140.213 39.3249 140.174 40.0605C140.141 40.7897 140.109 41.5449 140.076 42.3262C140.044 43.1009 140.008 43.8757 139.969 44.6504C139.936 45.4186 139.907 46.1348 139.881 46.7988C139.855 47.4629 139.832 48.0521 139.812 48.5664C139.799 49.0807 139.79 49.4714 139.783 49.7383C139.777 50.1029 139.796 50.4154 139.842 50.6758C139.887 50.9362 139.949 51.1478 140.027 51.3105C140.105 51.4733 140.2 51.5938 140.311 51.6719C140.421 51.7435 140.538 51.7793 140.662 51.7793C140.812 51.7793 140.962 51.7337 141.111 51.6426C141.261 51.5514 141.404 51.4342 141.541 51.291C141.678 51.1478 141.808 50.985 141.932 50.8027C142.055 50.6204 142.169 50.4382 142.273 50.2559C142.378 50.0736 142.465 49.901 142.537 49.7383C142.615 49.5755 142.677 49.4421 142.723 49.3379L142.547 50.4414ZM149.871 45.4805C149.891 45.9883 149.874 46.4863 149.822 46.9746C149.77 47.4629 149.692 47.9219 149.588 48.3516C149.49 48.7747 149.367 49.1621 149.217 49.5137C149.074 49.8587 148.917 50.1419 148.748 50.3633C148.637 50.513 148.481 50.6888 148.279 50.8906C148.084 51.0859 147.863 51.291 147.615 51.5059C147.368 51.7142 147.104 51.9225 146.824 52.1309C146.544 52.3392 146.268 52.5247 145.994 52.6875C145.721 52.8438 145.457 52.9707 145.203 53.0684C144.956 53.1725 144.738 53.2246 144.549 53.2246C144.327 53.2246 144.135 53.166 143.973 53.0488C143.81 52.9382 143.67 52.7917 143.553 52.6094C143.436 52.4206 143.338 52.2122 143.26 51.9844C143.182 51.75 143.12 51.5189 143.074 51.291C143.029 51.0566 142.996 50.8353 142.977 50.627C142.964 50.4121 142.957 50.2298 142.957 50.0801C142.957 49.5072 143.009 48.9408 143.113 48.3809C143.217 47.8145 143.377 47.2773 143.592 46.7695C143.813 46.2617 144.09 45.793 144.422 45.3633C144.754 44.9271 145.151 44.5527 145.613 44.2402C145.913 44.0384 146.183 43.8561 146.424 43.6934C146.665 43.5241 146.886 43.3841 147.088 43.2734C147.29 43.1628 147.472 43.0781 147.635 43.0195C147.804 42.9544 147.964 42.9219 148.113 42.9219C148.257 42.9219 148.423 42.9609 148.611 43.0391C148.807 43.1172 148.992 43.2539 149.168 43.4492C149.35 43.638 149.507 43.8984 149.637 44.2305C149.767 44.556 149.845 44.9727 149.871 45.4805ZM148.328 47.1016C148.328 46.8281 148.309 46.5156 148.27 46.1641C148.23 45.8125 148.152 45.4837 148.035 45.1777C147.918 44.8717 147.752 44.6146 147.537 44.4062C147.329 44.1914 147.049 44.084 146.697 44.084C146.554 44.084 146.404 44.1165 146.248 44.1816C146.098 44.2402 145.958 44.3346 145.828 44.4648C145.568 44.7253 145.356 45.0247 145.193 45.3633C145.037 45.6953 144.913 46.0469 144.822 46.418C144.731 46.7891 144.669 47.1634 144.637 47.541C144.604 47.9186 144.588 48.2767 144.588 48.6152C144.588 48.791 144.591 48.9961 144.598 49.2305C144.604 49.4583 144.624 49.696 144.656 49.9434C144.689 50.1842 144.734 50.4251 144.793 50.666C144.858 50.9069 144.943 51.1217 145.047 51.3105C145.158 51.4928 145.294 51.6426 145.457 51.7598C145.62 51.877 145.818 51.9355 146.053 51.9355C146.365 51.9355 146.639 51.8477 146.873 51.6719C147.107 51.4896 147.309 51.2552 147.479 50.9688C147.648 50.6823 147.785 50.36 147.889 50.002C147.999 49.6439 148.087 49.2858 148.152 48.9277C148.217 48.5697 148.263 48.2311 148.289 47.9121C148.315 47.5866 148.328 47.3164 148.328 47.1016ZM154.158 47.5801C154.126 47.9512 154.096 48.3678 154.07 48.8301C154.044 49.2272 154.015 49.6992 153.982 50.2461C153.95 50.7865 153.914 51.3854 153.875 52.043L152.234 53.4395C152.378 52.1113 152.501 50.8451 152.605 49.6406C152.716 48.4362 152.771 47.248 152.771 46.0762C152.771 45.4837 152.69 45.0475 152.527 44.7676C152.365 44.4811 152.146 44.3379 151.873 44.3379C151.587 44.3379 151.255 44.4844 150.877 44.7773C150.962 44.6992 151.062 44.6016 151.18 44.4844C151.303 44.3607 151.434 44.2305 151.57 44.0938C151.714 43.957 151.86 43.8203 152.01 43.6836C152.166 43.5469 152.316 43.4232 152.459 43.3125C152.609 43.2018 152.752 43.1139 152.889 43.0488C153.025 42.9772 153.146 42.9414 153.25 42.9414C153.504 42.9414 153.699 43.013 153.836 43.1562C153.973 43.2995 154.074 43.4753 154.139 43.6836C154.204 43.8919 154.243 44.11 154.256 44.3379C154.269 44.5658 154.275 44.7611 154.275 44.9238V45.3828C154.62 44.8099 155.027 44.3053 155.496 43.8691C155.971 43.4329 156.525 43.1237 157.156 42.9414C157.293 42.9023 157.426 42.8926 157.557 42.9121C157.687 42.9251 157.817 42.9512 157.947 42.9902C158.077 43.0228 158.214 43.0586 158.357 43.0977C158.507 43.1367 158.667 43.1562 158.836 43.1562C158.966 43.1562 159.103 43.14 159.246 43.1074C159.389 43.0749 159.552 43.0195 159.734 42.9414C159.546 43.1302 159.36 43.3158 159.178 43.498C158.995 43.6803 158.813 43.8464 158.631 43.9961C158.455 44.1393 158.279 44.263 158.104 44.3672C157.934 44.4648 157.771 44.5234 157.615 44.543C157.446 44.5625 157.283 44.5527 157.127 44.5137C156.977 44.4681 156.821 44.4225 156.658 44.377C156.502 44.3249 156.336 44.2891 156.16 44.2695C155.984 44.2435 155.796 44.2598 155.594 44.3184C155.457 44.3639 155.32 44.4909 155.184 44.6992C155.053 44.901 154.923 45.1549 154.793 45.4609C154.669 45.7604 154.552 46.0957 154.441 46.4668C154.337 46.8314 154.243 47.196 154.158 47.5605V47.5801ZM164.041 50.1582C163.696 50.5488 163.377 50.8939 163.084 51.1934C162.798 51.4863 162.544 51.7337 162.322 51.9355C162.062 52.1699 161.827 52.3717 161.619 52.541C161.046 52.9967 160.548 53.2246 160.125 53.2246C159.884 53.2246 159.676 53.1595 159.5 53.0293C159.331 52.9056 159.184 52.7428 159.061 52.541C158.937 52.3392 158.836 52.1113 158.758 51.8574C158.68 51.6035 158.618 51.3496 158.572 51.0957C158.533 50.8353 158.504 50.5879 158.484 50.3535C158.471 50.1191 158.465 49.9206 158.465 49.7578C158.465 49.3216 158.514 48.8496 158.611 48.3418C158.715 47.834 158.862 47.3294 159.051 46.8281C159.246 46.3203 159.484 45.8353 159.764 45.373C160.044 44.9043 160.363 44.4909 160.721 44.1328C161.085 43.7682 161.482 43.4785 161.912 43.2637C162.348 43.0488 162.817 42.9414 163.318 42.9414C163.455 42.9414 163.569 42.9674 163.66 43.0195C163.751 43.0651 163.826 43.1302 163.885 43.2148C163.943 43.2995 163.982 43.3939 164.002 43.498C164.028 43.6022 164.041 43.7096 164.041 43.8203C164.041 44.1068 163.976 44.3932 163.846 44.6797C163.715 44.9661 163.54 45.2493 163.318 45.5293C163.104 45.8027 162.856 46.0729 162.576 46.3398C162.296 46.6003 162.003 46.8509 161.697 47.0918C161.398 47.3262 161.098 47.5475 160.799 47.7559C160.499 47.9642 160.226 48.153 159.979 48.3223V48.5371C159.979 48.6999 159.985 48.8984 159.998 49.1328C160.018 49.3607 160.047 49.6016 160.086 49.8555C160.132 50.1029 160.19 50.3503 160.262 50.5977C160.333 50.8451 160.424 51.0664 160.535 51.2617C160.646 51.457 160.776 51.6165 160.926 51.7402C161.082 51.8574 161.261 51.916 161.463 51.916C161.554 51.916 161.648 51.903 161.746 51.877C161.844 51.8444 161.941 51.7923 162.039 51.7207C162.208 51.584 162.4 51.3952 162.615 51.1543C162.798 50.946 163.009 50.6758 163.25 50.3438C163.491 50.0117 163.755 49.5918 164.041 49.084V50.1582ZM162.225 44.3965C162.146 44.3053 162.046 44.2467 161.922 44.2207C161.798 44.1947 161.665 44.2012 161.521 44.2402C161.385 44.2793 161.248 44.3542 161.111 44.4648C160.981 44.5755 160.87 44.722 160.779 44.9043C160.649 45.1647 160.506 45.5391 160.35 46.0273C160.193 46.5091 160.083 47.0658 160.018 47.6973C160.226 47.5736 160.441 47.4303 160.662 47.2676C160.883 47.1048 161.095 46.9323 161.297 46.75C161.505 46.5677 161.691 46.3789 161.854 46.1836C162.023 45.9818 162.153 45.7799 162.244 45.5781C162.342 45.3698 162.394 45.168 162.4 44.9727C162.407 44.7708 162.348 44.5788 162.225 44.3965ZM168.162 47.5801C168.13 47.9512 168.1 48.3678 168.074 48.8301C168.048 49.2272 168.019 49.6992 167.986 50.2461C167.954 50.7865 167.918 51.3854 167.879 52.043L166.238 53.4395C166.382 52.1113 166.505 50.8451 166.609 49.6406C166.72 48.4362 166.775 47.248 166.775 46.0762C166.775 45.4837 166.694 45.0475 166.531 44.7676C166.368 44.4811 166.15 44.3379 165.877 44.3379C165.59 44.3379 165.258 44.4844 164.881 44.7773C164.965 44.6992 165.066 44.6016 165.184 44.4844C165.307 44.3607 165.438 44.2305 165.574 44.0938C165.717 43.957 165.864 43.8203 166.014 43.6836C166.17 43.5469 166.32 43.4232 166.463 43.3125C166.613 43.2018 166.756 43.1139 166.893 43.0488C167.029 42.9772 167.15 42.9414 167.254 42.9414C167.508 42.9414 167.703 43.013 167.84 43.1562C167.977 43.2995 168.077 43.4753 168.143 43.6836C168.208 43.8919 168.247 44.11 168.26 44.3379C168.273 44.5658 168.279 44.7611 168.279 44.9238V45.3828C168.624 44.8099 169.031 44.3053 169.5 43.8691C169.975 43.4329 170.529 43.1237 171.16 42.9414C171.297 42.9023 171.43 42.8926 171.561 42.9121C171.691 42.9251 171.821 42.9512 171.951 42.9902C172.081 43.0228 172.218 43.0586 172.361 43.0977C172.511 43.1367 172.671 43.1562 172.84 43.1562C172.97 43.1562 173.107 43.14 173.25 43.1074C173.393 43.0749 173.556 43.0195 173.738 42.9414C173.549 43.1302 173.364 43.3158 173.182 43.498C172.999 43.6803 172.817 43.8464 172.635 43.9961C172.459 44.1393 172.283 44.263 172.107 44.3672C171.938 44.4648 171.775 44.5234 171.619 44.543C171.45 44.5625 171.287 44.5527 171.131 44.5137C170.981 44.4681 170.825 44.4225 170.662 44.377C170.506 44.3249 170.34 44.2891 170.164 44.2695C169.988 44.2435 169.799 44.2598 169.598 44.3184C169.461 44.3639 169.324 44.4909 169.188 44.6992C169.057 44.901 168.927 45.1549 168.797 45.4609C168.673 45.7604 168.556 46.0957 168.445 46.4668C168.341 46.8314 168.247 47.196 168.162 47.5605V47.5801Z" fill="#FFF8E8"/>
<defs>
<clipPath id="clip0_54_1416">
<rect width="91" height="91" fill="white" transform="translate(32)"/>
</clipPath>
</defs>
</svg>
