<svg width="27" height="27" viewBox="0 0 27 27" fill="none" xmlns="http://www.w3.org/2000/svg">
<path d="M9.55167 19.1C6.88722 19.1 4.62889 18.1744 2.77667 16.3233C0.925555 14.4733 0 12.2156 0 9.55C0 6.88445 0.925555 4.62611 2.77667 2.775C4.62778 0.92389 6.88611 -0.00111011 9.55167 9.998e-07C12.2172 0.00111211 14.475 0.926667 16.325 2.77667C18.175 4.62667 19.1006 6.88445 19.1017 9.55C19.1017 10.7078 18.8967 11.8283 18.4867 12.9117C18.0767 13.995 17.5378 14.9217 16.87 15.6917L26.7183 25.5367C26.8739 25.6922 26.9572 25.8839 26.9683 26.1117C26.9783 26.3372 26.895 26.5389 26.7183 26.7167C26.5406 26.8944 26.3439 26.9833 26.1283 26.9833C25.9128 26.9833 25.7161 26.8944 25.5383 26.7167L15.6917 16.87C14.8583 17.58 13.9 18.1294 12.8167 18.5183C11.7333 18.9072 10.6444 19.1017 9.55 19.1017M9.55 17.435C11.7611 17.435 13.6283 16.6739 15.1517 15.1517C16.6739 13.6294 17.435 11.7622 17.435 9.55C17.435 7.33778 16.6744 5.47111 15.1533 3.95C13.6322 2.42889 11.7656 1.66778 9.55333 1.66667C7.34111 1.66667 5.47389 2.42778 3.95167 3.95C2.42944 5.47222 1.66778 7.33889 1.66667 9.55C1.66556 11.7611 2.42667 13.6278 3.95 15.15C5.47333 16.6722 7.34 17.4333 9.55 17.4333" fill="white"/>
</svg>
